<svg width="30" height="30" viewBox="0 0 30 30" xmlns="http://www.w3.org/2000/svg" fill="none"><path d="M14.994 0c-6.629 0-12.025 5.396-12.025 12.025 0 .755.069 1.516.214 2.258l.082.402c.182.811.453 1.61.805 2.371 1.296 3.05 4.145 7.736 10.396 12.755.157.126.346.189.535.189.189 0 .377-.063.535-.189 6.245-5.019 9.101-9.704 10.396-12.755.352-.761.623-1.553.805-2.371l.082-.402c.138-.742.214-1.503.214-2.258-.012-6.629-5.409-12.025-12.038-12.025zm10.138 13.987l-.006.038-.057.27v.013c-.157.704-.39 1.39-.698 2.05l-.013.025c-1.176 2.786-3.755 7.038-9.365 11.673-5.61-4.635-8.189-8.887-9.365-11.673l-.013-.025c-.302-.654-.535-1.346-.698-2.05v-.013l-.057-.27-.006-.044c-.126-.648-.189-1.302-.189-1.962 0-5.692 4.635-10.327 10.327-10.327s10.327 4.635 10.327 10.327c0 .667-.063 1.327-.189 1.968zM14.994 4.522c-4.207 0-7.635 3.428-7.635 7.635s3.428 7.635 7.635 7.635 7.635-3.428 7.635-7.635c0-4.208-3.428-7.635-7.635-7.635zm0 13.572c-3.277 0-5.937-2.667-5.937-5.937 0-3.27 2.667-5.937 5.937-5.937 3.27 0 5.937 2.667 5.937 5.937 0 3.27-2.66 5.937-5.937 5.937z"/></svg>