<svg width="30" height="23" viewBox="0 0 30 23" xmlns="http://www.w3.org/2000/svg" fill="none"><path d="M29.999 0l-.929 2.5h-2.411l-4.342 15h-16.549l-5.769-13.75h21.015l-.705 2.5h-16.55l3.671 8.75h13.035l4.29-15h5.244zm-19.375 18.75c-1.035 0-1.875.84-1.875 1.875 0 1.036.84 1.875 1.875 1.875 1.035 0 1.875-.839 1.875-1.875 0-1.035-.84-1.875-1.875-1.875zm8.625-8.75l-2.375 8.75c-1.035 0-1.875.839-1.875 1.875s.84 1.875 1.875 1.875c1.035 0 1.875-.839 1.875-1.875 0-1.035-.84-1.875-1.875-1.875l2.375-8.75z" fill="#2F3035"/></svg>