<svg width="18" height="17" viewBox="0 0 18 17" xmlns="http://www.w3.org/2000/svg" fill="none"><path d="M11.171 3.143h5.901v12.021c0 .517-.466.836-.971.836h-14.208c-.505 0-.893-.398-.893-.916v-11.942h5.823M11.385 3.143h5.631l.039-.064-2.097-2.079h-11.845l-2.097 2.079.039.064h5.631M11.714 3.143l-.932-2.143h-3.401l-1.025 2.143M11.714 3.143v4.286l-2.61-1.506-2.747 1.506v-4.286" stroke="#2F3035" stroke-width="1.5" stroke-miterlimit="10"/><path d="M10.986 11.714h-3.865c-.443 0-.765-.438-.765-.925v-.292c0-.536.362-.925.765-.925h3.824c.443 0 .765.438.765.925v.292c.04.536-.322.925-.725.925z" stroke="#2F3035" stroke-width="1.5" stroke-miterlimit="10"/></svg>