<svg width="30" height="30" viewBox="0 0 30 30" xmlns="http://www.w3.org/2000/svg" fill="none"><path d="M17.419 29.805l-.376.056.376-.056zM17.719 29.753l-.179.031.179-.031zM16.707 29.903l-.441.044.441-.044zM16.995 29.867l-.212.026.212-.026zM18.127 29.672l-.158.033.158-.033zM19.14 29.421l-.128.035.128-.035zM18.834 29.505l-.139.036.139-.036zM18.433 29.605l-.148.033.148-.033zM16.262 29.947l-.237.018.237-.018zM30 15c0-8.283-6.717-15-15-15-8.283 0-15 6.717-15 15 0 8.283 6.717 15 15 15l.264-.003v-11.677h-3.223v-3.756h3.223v-2.764c0-3.205 1.957-4.95 4.816-4.95 1.369 0 2.546.102 2.889.148v3.35h-1.972c-1.555 0-1.857.739-1.857 1.824v2.392h3.719l-.485 3.756h-3.235v11.101c6.27-1.797 10.86-7.574 10.86-14.421zM15.991 29.967l-.47.023.47-.023zM15.513 29.99l-.249.006.249-.006z" fill="#2F3035"/></svg>