<svg width="8" height="10" viewBox="0 0 8 10" xmlns="http://www.w3.org/2000/svg" fill="none"><mask id="a"><path fill-rule="evenodd" clip-rule="evenodd" d="M3.151 5.764h.949c.384 0 .768 0 1.172-.038 1.495-.077 2.687-1.289 2.727-2.77.02-1.52-1.151-2.847-2.646-2.924-.949-.038-1.879-.038-2.869-.019-.444.019-.889.019-1.353.019h-.202v4.424h-.929v1.289h.929v.519h-.909v1.289h.909v1.789h1.454v-1.789h2.242v-1.289h-2.242v-.5h.768zm-.768-1.308h.343v.019h.707c.848.019 1.434 0 1.778-.019.808-.077 1.454-.769 1.434-1.577 0-.846-.687-1.539-1.555-1.577-.483-.029-.966-.025-1.466-.022l-.514.002h-.727v3.174z"/></mask><path fill-rule="evenodd" clip-rule="evenodd" d="M3.151 5.764h.949c.384 0 .768 0 1.172-.038 1.495-.077 2.687-1.289 2.727-2.77.02-1.52-1.151-2.847-2.646-2.924-.949-.038-1.879-.038-2.869-.019-.444.019-.889.019-1.353.019h-.202v4.424h-.929v1.289h.929v.519h-.909v1.289h.909v1.789h1.454v-1.789h2.242v-1.289h-2.242v-.5h.768zm-.768-1.308h.343v.019h.707c.848.019 1.434 0 1.778-.019.808-.077 1.454-.769 1.434-1.577 0-.846-.687-1.539-1.555-1.577-.483-.029-.966-.025-1.466-.022l-.514.002h-.727v3.174z" fill="#C4C4C4"/><path d="M5.272 5.725l-.013-.25-.011.001.024.249zm2.727-2.77l.25.007v-.004l-.25-.003zm-2.646-2.924l.013-.25h-.003l-.01.25zm-2.869-.019l-.005-.25h-.006l.011.25zm-1.555.019v-.25h-.25v.25h.25zm0 4.424v.25h.25v-.25h-.25zm-.929 0v-.25h-.25v.25h.25zm0 1.289h-.25v.25h.25v-.25zm.929 0h.25v-.25h-.25v.25zm0 .519v.25h.25v-.25h-.25zm-.909 0v-.25h-.25v.25h.25zm0 1.289h-.25v.25h.25v-.25zm.909 0h.25v-.25h-.25v.25zm0 1.789h-.25v.25h.25v-.25zm1.454 0v.25h.25v-.25h-.25zm0-1.789v-.25h-.25v.25h.25zm2.242 0v.25h.25v-.25h-.25zm0-1.289h.25v-.25h-.25v.25zm-2.242 0h-.25v.25h.25v-.25zm0-.5v-.25h-.25v.25h.25zm.343-1.308h.25v-.25h-.25v.25zm-.343 0h-.25v.25h.25v-.25zm.343.019h-.25v.25h.25v-.25zm.707 0l.006-.25h-.006v.25zm1.778-.019l.014.25.01-.001-.024-.249zm1.434-1.577h-.25v.006l.25-.006zm-1.555-1.577l-.015.25h.004l.011-.25zm-1.466-.022l-.002-.25.002.25zm-1.241.002v-.25h-.25v.25h.25zm1.717 4.232h-.949v.5h.949v-.5zm0 0v.5-.5zm1.148-.037c-.39.037-.763.037-1.148.037v.5c.382 0 .778 0 1.195-.04l-.047-.498zm2.501-2.528c-.037 1.349-1.124 2.457-2.49 2.527l.026.499c1.623-.084 2.92-1.399 2.964-3.013l-.5-.014zm-2.409-2.667c1.351.07 2.428 1.276 2.409 2.671l.5.007c.022-1.644-1.245-3.092-2.883-3.177l-.026.499zm-2.851-.019c.987-.019 1.911-.019 2.854.019l.02-.5c-.956-.039-1.891-.039-2.884-.019l.01.5zm-1.358.019c.464 0 .914 0 1.364-.019l-.022-.5c-.438.019-.877.019-1.343.019v.5zm-.202 0h.202v-.5h-.202v.5zm.25 3.635v-3.885h-.5v3.885h.5zm0 .539v-.539h-.5v.539h.5zm-1.179.25h.929v-.5h-.929v.5zm.25 1.039v-1.289h-.5v1.289h.5zm.679-.25h-.929v.5h.929v-.5zm.25.769v-.519h-.5v.519h.5zm-1.159.25h.909v-.5h-.909v.5zm.25 1.039v-1.289h-.5v1.289h.5zm.659-.25h-.909v.5h.909v-.5zm.25 2.039v-1.789h-.5v1.789h.5zm1.204-.25h-1.454v.5h1.454v-.5zm-.25-1.539v1.789h.5v-1.789h-.5zm2.492-.25h-2.242v.5h2.242v-.5zm-.25-1.039v1.289h.5v-1.289h-.5zm-1.992.25h2.242v-.5h-2.242v.5zm-.25-.75v.5h.5v-.5h-.5zm1.018-.25h-.768v.5h.768v-.5zm-.424-1.308h-.343v.5h.343v-.5zm.25.269v-.019h-.5v.019h.5zm.033-.25h-.283v.5h.283v-.5zm.343 0h-.343v.5h.343v-.5zm.081 0h-.081v.5h.081v-.5zm1.764-.019c-.337.019-.916.038-1.758.019l-.011.5c.855.019 1.447 0 1.797-.02l-.028-.499zm1.198-1.321c.017.669-.523 1.257-1.208 1.322l.047.498c.931-.089 1.684-.886 1.66-1.832l-.5.012zm-1.317-1.334c.742.033 1.317.622 1.317 1.327h.5c0-.987-.8-1.783-1.794-1.827l-.022.5zm-1.453-.021c.501-.004.976-.007 1.449.021l.03-.499c-.493-.029-.984-.026-1.483-.022l.004.5zm-.516.002l.516-.002-.004-.5-.512.002v.5zm-.727 0h.727v-.5h-.727v.5zm.25 2.385v-2.635h-.5v2.635h.5zm-.5 0v.539h.5v-.539h-.5z" fill="#fff" mask="url(#a)"/></svg>