<svg width="30" height="30" viewBox="0 0 30 30" xmlns="http://www.w3.org/2000/svg" fill="none"><path d="M15.005 7.297c-4.254 0-7.697 3.448-7.697 7.698 0 4.254 3.447 7.697 7.697 7.697 4.254 0 7.698-3.447 7.698-7.697 0-4.254-3.448-7.698-7.698-7.698zm0 12.694c-2.761 0-4.996-2.236-4.996-4.996 0-2.76 2.236-4.996 4.996-4.996 2.76 0 4.996 2.236 4.996 4.996.001 2.76-2.235 4.996-4.996 4.996zm6.18-19.896c-2.76-.129-9.596-.122-12.359 0-2.428.114-4.569.7-6.295 2.426-2.885 2.885-2.516 6.773-2.516 12.474 0 5.835-.325 9.633 2.516 12.474 2.896 2.895 6.84 2.516 12.474 2.516 5.78 0 7.775.004 9.819-.787 2.779-1.079 4.876-3.563 5.081-8.024.13-2.761.122-9.596 0-12.359-.248-5.266-3.074-8.46-8.72-8.72zm4.369 25.465c-1.891 1.891-4.515 1.723-10.585 1.723-6.25 0-8.756.092-10.585-1.741-2.106-2.096-1.725-5.462-1.725-10.566 0-6.906-.709-11.88 6.223-12.235 1.592-.056 2.061-.075 6.07-.075l.056.038c6.661 0 11.887-.697 12.201 6.232.071 1.581.087 2.056.087 6.059-.001 6.178.116 8.699-1.742 10.566zm-2.546-16.768c.994 0 1.799-.805 1.799-1.799 0-.993-.805-1.799-1.799-1.799-.993 0-1.799.805-1.799 1.799 0 .993.805 1.799 1.799 1.799z" clip-path="url(#a)" fill="#2F3035"/><defs><clipPath id="a"><path fill="#fff" d="M0 0h30v30h-30z"/></clipPath></defs></svg>