<svg width="80" height="76" viewBox="0 0 80 76" xmlns="http://www.w3.org/2000/svg" fill="none"><path d="M.9 70c-.067 0-.1-.033-.1-.1l.04-13.74c0-.053.027-.08.08-.08l3.74-.02c.733-.013 1.4.16 2 .52.613.36 1.1.847 1.46 1.46.36.6.54 1.267.54 2v5.74c0 .773-.187 1.48-.56 2.12-.373.627-.873 1.127-1.5 1.5s-1.333.567-2.12.58l-3.58.02zm2.34-2.46h1.24c.493 0 .907-.173 1.24-.52.347-.347.52-.76.52-1.24v-5.76c0-.427-.16-.793-.48-1.1-.307-.32-.673-.473-1.1-.46l-1.4.02-.02 9.06zm7.074 2.46c-.053 0-.08-.033-.08-.1l.04-13.74c0-.053.027-.08.08-.08h4.04c.72 0 1.38.18 1.98.54.613.347 1.1.82 1.46 1.42.36.587.54 1.253.54 2 0 .493-.073.94-.22 1.34-.147.387-.32.72-.52 1-.2.267-.38.467-.54.6.72.8 1.08 1.74 1.08 2.82l.02 4.1c0 .067-.033.1-.1.1h-2.26l-.08-.06v-4.14c0-.48-.173-.893-.52-1.24-.333-.36-.747-.54-1.24-.54h-1.32l-.02 5.88c0 .067-.027.1-.08.1h-2.26zm2.36-8.38h1.72c.413 0 .78-.153 1.1-.46.32-.307.48-.68.48-1.12 0-.427-.16-.793-.48-1.1-.307-.307-.673-.46-1.1-.46h-1.72v3.14zm7.308 8.38c-.067 0-.1-.033-.1-.1l.02-13.74c0-.053.027-.08.08-.08h2.24c.053 0 .08.027.08.08l.02 13.74c0 .067-.027.1-.08.1h-2.26zm6.339 0c-.053 0-.087-.033-.1-.1l-2.76-13.74c-.013-.053.013-.08.08-.08h2.26c.053 0 .087.027.1.08l1.64 9.16 1.6-9.16c.013-.053.047-.08.1-.08h2.24c.067 0 .093.027.08.08l-2.72 13.74c-.013.067-.047.1-.1.1h-2.42zm6.492 0c-.053 0-.08-.033-.08-.1l.02-13.74c0-.053.027-.08.08-.08h6.42c.053 0 .08.033.08.1v2.24c0 .053-.027.08-.08.08h-4.1v3.12h4.1c.053 0 .08.027.08.08l.02 2.26c0 .053-.027.08-.08.08h-4.12v3.5h4.12c.053 0 .08.033.08.1v2.28c0 .053-.027.08-.08.08h-6.46zm11.367 0c-.053 0-.08-.033-.08-.1l.04-13.74c0-.053.027-.08.08-.08h2.44c.053 0 .1.027.14.08l1.82 2.64 1.82-2.64c.04-.053.087-.08.14-.08h2.46c.053 0 .08.027.08.08l.04 13.74c0 .067-.027.1-.08.1h-2.26c-.053 0-.08-.033-.08-.1l-.02-10.2-2.1 3.04-2.08-3.04-.02 10.2c0 .067-.027.1-.08.1h-2.26zm14.362.2c-.72 0-1.38-.18-1.98-.54-.587-.373-1.06-.86-1.42-1.46-.36-.613-.54-1.287-.54-2.02l.02-6.34c0-.733.173-1.4.52-2 .36-.6.84-1.08 1.44-1.44.6-.36 1.253-.54 1.96-.54.72 0 1.373.18 1.96.54.587.36 1.053.84 1.4 1.44.36.6.54 1.267.54 2l.02 6.34c0 .733-.18 1.407-.54 2.02-.347.6-.82 1.087-1.42 1.46-.587.36-1.24.54-1.96.54zm0-2.42c.4 0 .747-.16 1.04-.48.307-.333.46-.707.46-1.12l-.02-6.34c0-.44-.14-.813-.42-1.12-.28-.307-.633-.46-1.06-.46-.413 0-.767.153-1.06.46-.293.293-.44.667-.44 1.12v6.34c0 .44.147.82.44 1.14.293.307.647.46 1.06.46zm7.187 2.22c-.053 0-.08-.033-.08-.1v-11.4h-2.6c-.067 0-.1-.033-.1-.1l.02-2.24c0-.053.027-.08.08-.08h7.6c.067 0 .1.027.1.08v2.24c0 .067-.027.1-.08.1h-2.62l.02 11.4c0 .067-.027.1-.08.1h-2.26zm9.259.2c-.72 0-1.38-.18-1.98-.54-.587-.373-1.06-.86-1.42-1.46-.36-.613-.54-1.287-.54-2.02l.02-6.34c0-.733.173-1.4.52-2 .36-.6.84-1.08 1.44-1.44.6-.36 1.253-.54 1.96-.54.72 0 1.373.18 1.96.54.587.36 1.053.84 1.4 1.44.36.6.54 1.267.54 2l.02 6.34c0 .733-.18 1.407-.54 2.02-.347.6-.82 1.087-1.42 1.46-.587.36-1.24.54-1.96.54zm0-2.42c.4 0 .747-.16 1.04-.48.307-.333.46-.707.46-1.12l-.02-6.34c0-.44-.14-.813-.42-1.12-.28-.307-.633-.46-1.06-.46-.413 0-.767.153-1.06.46-.293.293-.44.667-.44 1.12v6.34c0 .44.147.82.44 1.14.293.307.647.46 1.06.46zm-15.944-59.824c-.703-.703-1.808-.807-2.63-.247-3.098 2.112-18.636 12.729-20.306 14.399-2.422 2.422-2.422 6.362 0 8.784 1.211 1.211 2.802 1.816 4.392 1.816 1.59 0 3.181-.605 4.392-1.816 1.67-1.67 12.288-17.208 14.399-20.306.56-.822.457-1.927-.247-2.63zm-17.08 20.008c-.807.807-2.121.807-2.928 0-.807-.807-.807-2.12-.001-2.927.649-.641 5.06-3.787 10.488-7.56-3.773 5.428-6.919 9.839-7.56 10.488zm-18.417 8.165l-2.556 1.247c-1.87-3.338-2.851-7.063-2.851-10.876 0-2.794.515-5.47 1.456-7.938l2.928 1.405c.289.139.594.204.894.204.771 0 1.512-.433 1.868-1.175.494-1.031.06-2.268-.971-2.762l-2.891-1.387c3.594-5.861 9.812-9.947 17.006-10.611v3.114c0 1.143.927 2.07 2.07 2.07 1.143 0 2.07-.927 2.07-2.07v-3.115c2.467.225 4.853.853 7.119 1.875 1.042.47 2.268.007 2.739-1.035.471-1.042.007-2.268-1.035-2.739-3.433-1.55-7.098-2.336-10.893-2.336-7.078 0-13.733 2.756-18.738 7.762-5.005 5.005-7.762 11.66-7.762 18.738 0 5.231 1.553 10.318 4.49 14.711.396.592 1.05.92 1.722.92.306 0 .616-.068.907-.21l4.244-2.07c1.028-.501 1.454-1.741.953-2.768-.501-1.028-1.741-1.454-2.769-.953zm41.117-20.522c-.47-1.042-1.696-1.506-2.739-1.035-1.042.47-1.505 1.697-1.035 2.739 1.307 2.894 1.969 5.986 1.969 9.189 0 3.819-.984 7.55-2.86 10.892l-2.668-1.271c-1.032-.491-2.268-.053-2.759.979-.492 1.032-.053 2.268.979 2.759l4.348 2.07c.286.136.589.201.889.201.673 0 1.327-.329 1.722-.92 2.937-4.393 4.49-9.481 4.49-14.711 0-3.795-.786-7.46-2.336-10.893z" fill="#2F3035"/></svg>