<svg width="17" height="17" viewBox="0 0 17 17" xmlns="http://www.w3.org/2000/svg" fill="none"><path d="M6.142 1.983c.595.677.892 1.593.892 2.748 0 1.155-.297 2.075-.892 2.758-.595.684-1.391 1.025-2.389 1.025-.998 0-1.794-.342-2.389-1.025-.588-.684-.882-1.603-.882-2.758s.294-2.071.882-2.748c.595-.684 1.391-1.025 2.389-1.025.998 0 1.794.342 2.389 1.025zm-2.389 4.922c.383 0 .68-.191.892-.574.219-.39.328-.923.328-1.6 0-.684-.109-1.217-.328-1.6-.212-.39-.509-.584-.892-.584-.376 0-.673.195-.892.584-.212.383-.318.916-.318 1.6 0 .677.106 1.21.318 1.6.219.383.516.574.892.574zm.205 9.095h-2.235l5.732-7.844 5.086-6.952h2.215l-5.578 7.639-5.219 7.157zm11.156-6.347c.595.684.892 1.603.892 2.758s-.297 2.075-.892 2.758c-.595.677-1.391 1.015-2.389 1.015-.998 0-1.794-.338-2.389-1.015-.588-.684-.882-1.603-.882-2.758s.294-2.075.882-2.758c.595-.684 1.391-1.025 2.389-1.025.998 0 1.794.342 2.389 1.025zm-3.281 4.348c.219.39.516.585.892.585s.673-.195.892-.585c.219-.39.328-.923.328-1.6s-.109-1.21-.328-1.6c-.219-.39-.516-.585-.892-.585s-.673.195-.892.585c-.212.39-.318.923-.318 1.6s.106 1.21.318 1.6z" fill="#2F3035"/></svg>