<svg width="25" height="24" viewBox="0 0 25 24" xmlns="http://www.w3.org/2000/svg" fill="none"><path d="M24.089 22.206l-5.686-5.348c1.854-1.802 3.029-4.244 3.029-6.976 0-5.464-4.697-9.882-10.507-9.882s-10.507 4.418-10.507 9.882c0 5.464 4.697 9.882 10.507 9.882 2.225 0 4.327-.698 6.057-1.802l5.81 5.464c.185.174.433.233.68.233.247 0 .494-.058.68-.233.309-.349.309-.872-.062-1.221zm-21.818-12.324c0-4.476 3.894-8.138 8.653-8.138s8.653 3.662 8.653 8.138-3.894 8.138-8.653 8.138-8.653-3.662-8.653-8.138z" fill="#2F3035"/></svg>