<svg width="16" height="17" viewBox="0 0 16 17" xmlns="http://www.w3.org/2000/svg" fill="none"><path fill-rule="evenodd" clip-rule="evenodd" d="M6.167 12.561c-3.406 0-6.167-2.812-6.167-6.281s2.761-6.281 6.167-6.281c3.406 0 6.167 2.812 6.167 6.281 0 1.49-.509 2.858-1.36 3.935l4.832 4.921c.26.265.26.695 0 .96s-.682.265-.943 0l-4.832-4.921c-1.057.867-2.401 1.385-3.864 1.385zm0-1.359c2.669 0 4.833-2.204 4.833-4.923s-2.164-4.923-4.833-4.923-4.833 2.204-4.833 4.923 2.164 4.923 4.833 4.923z" fill="#C4C4C4"/></svg>