<svg width="30" height="30" viewBox="0 0 30 30" xmlns="http://www.w3.org/2000/svg" fill="none"><path d="M24.894 16.285c-.485-.613-.346-.885 0-1.433.006-.006 4.01-5.539 4.422-7.415l.003-.001c.205-.684 0-1.186-.991-1.186h-3.28c-.835 0-1.22.431-1.426.914 0 0-1.67 3.998-4.033 6.589-.762.749-1.115.989-1.531.989-.205 0-.524-.24-.524-.924v-6.381c0-.82-.234-1.186-.925-1.186h-5.157c-.524 0-.835.383-.835.739 0 .778 1.181.956 1.304 3.144v4.746c0 1.04-.189 1.231-.607 1.231-1.115 0-3.821-4.014-5.425-8.607-.324-.891-.64-1.251-1.481-1.251h-3.281c-.936 0-1.125.431-1.125.914 0 .853 1.115 5.091 5.185 10.691 2.713 3.823 6.532 5.894 10.008 5.894 2.089 0 2.344-.46 2.344-1.251 0-3.652-.189-3.998.857-3.998.485 0 1.32.24 3.27 2.084 2.229 2.186 2.595 3.165 3.843 3.165h3.28c.935 0 1.409-.46 1.136-1.367-.624-1.909-4.839-5.835-5.029-6.098z" fill="#2F3035"/></svg>