<svg width="30" height="30" viewBox="0 0 30 30" xmlns="http://www.w3.org/2000/svg" fill="none"><path d="M13.132 17.81l4.879-2.81-4.879-2.81v5.62zM15 0c-8.283 0-15 6.717-15 15 0 8.283 6.717 15 15 15 8.283 0 15-6.717 15-15 0-8.283-6.717-15-15-15zm9.373 15.015s0 3.042-.386 4.509c-.216.803-.849 1.436-1.652 1.652-1.467.386-7.334.386-7.334.386s-5.852 0-7.335-.401c-.803-.216-1.436-.849-1.652-1.652-.386-1.451-.386-4.509-.386-4.509s0-3.042.386-4.509c.216-.803.865-1.452 1.652-1.668 1.467-.386 7.335-.386 7.335-.386s5.868 0 7.334.401c.803.216 1.436.849 1.652 1.652.402 1.467.386 4.524.386 4.524z" fill="#2F3035"/></svg>